[Header]
FileType HTR
DataType HTRS
FileVersion 1
NumSegments 22
NumFrames 4
DataFrameRate 24
EulerRotationOrder ZYX
CalibrationUnits mm
RotationUnits Degrees
GlobalAxisofGravity Y
BoneLengthAxis Y
ScaleFactor 1.0
[SegmentNames&Hierarchy]
reference	GLOBAL
Hips	reference
Spine	Hips
Spine1	Spine
Neck	Spine1
Head	Neck
LeftShoulder	Spine1
LeftArm	LeftShoulder
LeftForeArm	LeftArm
LeftHand	LeftForeArm
RightShoulder	Spine1
RightArm	RightShoulder
RightForeArm	RightArm
RightHand	RightForeArm
LeftUpLeg	Hips
LeftLeg	LeftUpLeg
LeftFoot	LeftLeg
LeftToeBase	LeftFoot
RightUpLeg	Hips
RightLeg	RightUpLeg
RightFoot	RightLeg
RightToeBase	RightFoot
[BasePosition]
reference	0	0	0	0	0	0	1
Hips	0	0	0	0	0	0	1
Spine	0	0	0	-0	-90	0	1
Spine1	0	0	0	0	0	0	1
Neck	0	0	0	82.64767223	-82.64767223	-90	1
Head	0	0	0	-0	-90	0	1
LeftShoulder	0	0	0	0	0	0	1
LeftArm	0	0	0	0	0	0	1
LeftForeArm	0	0	0	0	0	0	1
LeftHand	0	0	0	0	0	0	1
RightShoulder	0	0	0	0	-0	180	1
RightArm	0	0	0	0	-0	180	1
RightForeArm	0	0	0	0	-0	180	1
RightHand	0	0	0	0	-0	180	1
LeftUpLeg	0	0	0	-0	90	0	1
LeftLeg	0	0	0	-0	90	0	1
LeftFoot	0	0	0	-23.42853957	23.42853957	-90	1
LeftToeBase	0	0	0	0	-0	-90	1
RightUpLeg	0	0	0	-0	90	0	1
RightLeg	0	0	0	-0	90	0	1
RightFoot	0	0	0	-23.42853957	23.42853957	-90	1
RightToeBase	0	0	0	0	-0	-90	1
[reference]
19	0	0	0	0	-0	0	1.0
20	0	0	0	0	-0	0	1.0
21	0	0	0	0	-0	0	1.0
22	0	0	0	0	-0	0	1.0
[Hips]
19	6.033168316	3.327975273	8.275532722	5.011892319	7.04004097	-110.0247345	1.0
20	6.112323761	3.519566059	8.254272461	5.745392799	5.789538383	-107.9642563	1.0
21	6.155529976	3.760169983	8.305729866	3.76731205	6.920159817	-108.1282425	1.0
22	6.195327759	3.950686216	8.359773636	3.112687826	7.653206825	-109.0849838	1.0
[Spine]
19	0	0	0.7457100153	-124.3975983	89.38716888	-116.9009857	1.0
20	0	0	0.7457100153	-118.1280212	88.20470428	-109.4901123	1.0
21	0	0	0.7457100153	-206.6389923	91.1289978	-199.7433319	1.0
22	0	0	0.7457100153	-173.8955231	91.97249603	-167.0261841	1.0
[Spine1]
19	0	0	2.140589952	5.034284592	-9.003210068	-0.4972443581	1.0
20	0	0	2.140589952	6.654107094	-7.462351799	-0.9199852347	1.0
21	0	0	2.140589952	6.219257355	-6.493919849	-0.5039680004	1.0
22	0	0	2.140589952	6.132386208	-6.694317341	-0.2570948601	1.0
[Neck]
19	0	0	2.32246995	74.74768066	78.06298828	87.14854431	1.0
20	0	0	2.32246995	72.49571228	78.39035034	87.44934082	1.0
21	0	0	2.32246995	72.30296326	78.78840637	87.29962158	1.0
22	0	0	2.32246995	76.75338745	78.78145599	90.97988892	1.0
[Head]
19	0	-0.1818799973	1.409579992	-72.18784332	95.34468842	-65.43843842	1.0
20	0	-0.1818799973	1.409579992	-78.58270264	94.68384552	-72.79930115	1.0
21	0	-0.1818799973	1.409579992	-72.41391754	94.44776154	-67.3633194	1.0
22	0	-0.1818799973	1.409579992	-70.33712006	94.60322571	-65.23145294	1.0
[LeftShoulder]
19	0.3668199778	0.02662999928	1.946700096	-17.483078	1.888604403	-12.98752403	1.0
20	0.3668199778	0.02662999928	1.946700096	-16.94240189	2.141747236	-13.13275242	1.0
21	0.3668199778	0.02662999928	1.946700096	-16.58405685	2.316631079	-13.46713543	1.0
22	0.3668199778	0.02662999928	1.946700096	-16.65414619	2.087120533	-13.10644722	1.0
[LeftArm]
19	1.140689969	0	0	78.49911499	68.79722595	32.25583267	1.0
20	1.140689969	0	0	76.80014038	69.0700531	30.43270874	1.0
21	1.140689969	0	0	77.47702026	69.06090546	31.14132881	1.0
22	1.140689969	0	0	79.38990021	69.23388672	32.68507385	1.0
[LeftForeArm]
19	2.749800205	0	0	25.17933846	-14.47350883	-132.1827087	1.0
20	2.749800205	0	0	24.2552681	-14.37280273	-130.9768982	1.0
21	2.749800205	0	0	23.00312614	-14.12973404	-129.8818665	1.0
22	2.749800205	0	0	23.04761505	-14.3568306	-130.2563019	1.0
[LeftHand]
19	2.295179844	0	0	-5.465726376	-6.71158886	-22.14739037	1.0
20	2.295179844	0	0	-5.698945045	-4.881984711	-22.21606064	1.0
21	2.295179844	0	0	-5.934319019	-3.984574556	-21.29142761	1.0
22	2.295179844	0	0	-6.559812069	-4.261236668	-20.98332214	1.0
[RightShoulder]
19	-0.3601199985	0.02662999928	1.946700096	-8.308081627	4.339251041	-177.1306763	1.0
20	-0.3601199985	0.02662999928	1.946700096	-7.698859215	4.273193359	-176.9492798	1.0
21	-0.3601199985	0.02662999928	1.946700096	-6.788814545	4.101771832	-176.5919952	1.0
22	-0.3601199985	0.02662999928	1.946700096	-7.027603149	4.444163799	-176.3275757	1.0
[RightArm]
19	-1.140689969	0	0	-123.8980103	-102.3254318	4.38985157	1.0
20	-1.140689969	0	0	-125.7073975	-101.8160782	3.641781807	1.0
21	-1.140689969	0	0	-122.5327454	-102.6609116	0.73046875	1.0
22	-1.140689969	0	0	-122.6504898	-103.5273361	1.270128727	1.0
[RightForeArm]
19	-2.749800205	0	0	48.83620071	25.20320702	-51.29001999	1.0
20	-2.749800205	0	0	45.64463043	23.45779991	-52.47503281	1.0
21	-2.749800205	0	0	46.61720276	24.49811935	-52.29393768	1.0
22	-2.749800205	0	0	46.92051697	24.30508804	-51.98565674	1.0
[RightHand]
19	-2.295179844	0	0	2.287129402	19.36454773	-160.2754517	1.0
20	-2.295179844	0	0	3.175622463	18.28695869	-160.2347717	1.0
21	-2.295179844	0	0	2.039617777	18.28942871	-160.7061768	1.0
22	-2.295179844	0	0	2.464797974	18.94598579	-161.0045013	1.0
[LeftUpLeg]
19	0.9094099998	0	0	57.32543945	-105.0401764	-65.49945068	1.0
20	0.9094099998	0	0	48.18468475	-104.1913147	-60.39575195	1.0
21	0.9094099998	0	0	30.42889404	-103.3161926	-39.68530273	1.0
22	0.9094099998	0	0	23.48561668	-103.6069107	-29.91097641	1.0
[LeftLeg]
19	0	0	-4.498080254	43.30535889	-83.31978607	-21.96598816	1.0
20	0	0	-4.498080254	64.84242249	-77.32794189	-37.09616852	1.0
21	0	0	-4.498080254	51.48355484	-80.11291504	-25.66052818	1.0
22	0	0	-4.498080254	0.594833374	-84.77272034	21.28643036	1.0
[LeftFoot]
19	0	0	-3.729400158	-59.78916931	-8.186914444	106.465538	1.0
20	0	0	-3.729400158	-61.11306763	-4.656122208	110.1766281	1.0
21	0	0	-3.729400158	-59.19571686	-2.991380215	109.5663681	1.0
22	0	0	-3.729400158	-55.97890472	-5.529171467	105.6678925	1.0
[LeftToeBase]
19	0	-1.364109993	-0.5911099911	-9.999999975e-007	0	0	1.0
20	0	-1.364109993	-0.5911099911	-9.999999975e-007	0	0	1.0
21	0	-1.364109993	-0.5911099911	-9.999999975e-007	0	0	1.0
22	0	-1.364109993	-0.5911099911	-9.999999975e-007	0	0	1.0
[RightUpLeg]
19	-0.9094099998	0	0	71.67025757	-64.46187592	-89.89569092	1.0
20	-0.9094099998	0	0	62.21669769	-64.95761108	-80.24817657	1.0
21	-0.9094099998	0	0	56.16841507	-70.1590271	-70.18571472	1.0
22	-0.9094099998	0	0	51.31344223	-73.71147156	-63.89591217	1.0
[RightLeg]
19	0	0	-4.498080254	54.01493073	-81.02760315	-31.20039177	1.0
20	0	0	-4.498080254	66.83920288	-77.8396225	-47.02280807	1.0
21	0	0	-4.498080254	70.65310669	-76.95074463	-53.55609894	1.0
22	0	0	-4.498080254	67.67358398	-77.75712585	-51.25745392	1.0
[RightFoot]
19	0	0	-3.729400158	-40.31701279	-41.91917419	106.1887131	1.0
20	0	0	-3.729400158	-40.34484482	-38.48732376	108.2860413	1.0
21	0	0	-3.729400158	-33.35103989	-38.3707962	103.5873642	1.0
22	0	0	-3.729400158	-29.96356583	-40.07862854	101.1409607	1.0
[RightToeBase]
19	0	-1.364109993	-0.5911099911	0	-9.999999975e-007	-9.999999975e-007	1.0
20	0	-1.364109993	-0.5911099911	0	-9.999999975e-007	-9.999999975e-007	1.0
21	0	-1.364109993	-0.5911099911	0	-9.999999975e-007	-9.999999975e-007	1.0
22	0	-1.364109993	-0.5911099911	0	-9.999999975e-007	-9.999999975e-007	1.0
[EndOfFile]
